STARTFONT 2.1
COMMENT converted Oberon font (using FontToBDF by R.Crelier 10.1.91)
FONT Times16.Scn.Fnt
SIZE 16 75 75
FONTBOUNDINGBOX  17 18 0 -4
STARTPROPERTIES 3
FONT_ASCENT 14
FONT_DESCENT 4
DEFAULT_CHAR 0
ENDPROPERTIES
CHARS 121
STARTCHAR c0
ENCODING -1 0
SWIDTH 0 0
DWIDTH 0 0
BBX 0 0 0 0
BITMAP
ENDCHAR
STARTCHAR c9
ENCODING -1 9
SWIDTH 516 0
DWIDTH 16 0
BBX 0 0 0 0
BITMAP
ENDCHAR
STARTCHAR c32
ENCODING -1 32
SWIDTH 129 0
DWIDTH 4 0
BBX 0 0 0 0
BITMAP
ENDCHAR
STARTCHAR c33
ENCODING -1 33
SWIDTH 193 0
DWIDTH 6 0
BBX 2 12 3 0
BITMAP
C0
C0
C0
C0
80
C0
80
80
00
00
C0
C0
ENDCHAR
STARTCHAR c34
ENCODING -1 34
SWIDTH 225 0
DWIDTH 7 0
BBX 5 4 0 8
BITMAP
D8
48
48
90
ENDCHAR
STARTCHAR c35
ENCODING -1 35
SWIDTH 354 0
DWIDTH 11 0
BBX 8 12 1 0
BITMAP
12
12
12
7F
7F
24
24
FE
FE
48
48
48
ENDCHAR
STARTCHAR c36
ENCODING -1 36
SWIDTH 354 0
DWIDTH 11 0
BBX 8 14 1 -1
BITMAP
08
3D
4B
C9
C9
E8
78
1E
17
93
93
D2
BC
10
ENDCHAR
STARTCHAR c37
ENCODING -1 37
SWIDTH 419 0
DWIDTH 13 0
BBX 12 12 0 0
BITMAP
3080
4880
CD00
CD00
CE00
4AC0
3520
0730
0B30
0B30
1120
10C0
ENDCHAR
STARTCHAR c38
ENCODING -1 38
SWIDTH 419 0
DWIDTH 13 0
BBX 11 12 1 0
BITMAP
0E00
1900
1900
1A00
0CE0
1640
2640
4340
C380
C180
E2C0
7CE0
ENDCHAR
STARTCHAR c39
ENCODING -1 39
SWIDTH 129 0
DWIDTH 4 0
BBX 2 4 0 8
BITMAP
C0
40
40
80
ENDCHAR
STARTCHAR c40
ENCODING -1 40
SWIDTH 193 0
DWIDTH 6 0
BBX 5 17 0 -4
BITMAP
08
10
20
60
40
C0
C0
C0
C0
C0
C0
C0
40
60
20
10
08
ENDCHAR
STARTCHAR c41
ENCODING -1 41
SWIDTH 193 0
DWIDTH 6 0
BBX 5 17 0 -4
BITMAP
80
40
20
30
10
18
18
18
18
18
18
18
10
30
20
40
80
ENDCHAR
STARTCHAR c42
ENCODING -1 42
SWIDTH 322 0
DWIDTH 10 0
BBX 9 9 0 0
BITMAP
0800
8880
4900
2A00
1C00
2A00
4900
8880
0800
ENDCHAR
STARTCHAR c43
ENCODING -1 43
SWIDTH 322 0
DWIDTH 10 0
BBX 9 9 0 0
BITMAP
0800
0800
0800
0800
FF80
0800
0800
0800
0800
ENDCHAR
STARTCHAR c44
ENCODING -1 44
SWIDTH 129 0
DWIDTH 4 0
BBX 2 5 1 -3
BITMAP
C0
C0
40
40
80
ENDCHAR
STARTCHAR c45
ENCODING -1 45
SWIDTH 161 0
DWIDTH 5 0
BBX 4 1 0 4
BITMAP
F0
ENDCHAR
STARTCHAR c46
ENCODING -1 46
SWIDTH 129 0
DWIDTH 4 0
BBX 2 2 1 0
BITMAP
C0
C0
ENDCHAR
STARTCHAR c47
ENCODING -1 47
SWIDTH 258 0
DWIDTH 8 0
BBX 6 13 1 0
BITMAP
04
04
08
08
10
10
10
20
20
40
40
80
80
ENDCHAR
STARTCHAR c48
ENCODING -1 48
SWIDTH 290 0
DWIDTH 9 0
BBX 8 12 0 0
BITMAP
3C
66
42
C3
C3
C3
C3
C3
C3
42
66
3C
ENDCHAR
STARTCHAR c49
ENCODING -1 49
SWIDTH 290 0
DWIDTH 9 0
BBX 7 12 0 0
BITMAP
18
38
D8
18
18
18
18
18
18
18
18
7E
ENDCHAR
STARTCHAR c50
ENCODING -1 50
SWIDTH 290 0
DWIDTH 9 0
BBX 7 12 0 0
BITMAP
7C
8E
06
06
06
0C
08
10
20
42
FE
FE
ENDCHAR
STARTCHAR c51
ENCODING -1 51
SWIDTH 290 0
DWIDTH 9 0
BBX 6 12 1 0
BITMAP
78
9C
0C
08
10
E0
18
0C
0C
0C
D8
E0
ENDCHAR
STARTCHAR c52
ENCODING -1 52
SWIDTH 290 0
DWIDTH 9 0
BBX 9 12 0 0
BITMAP
0C00
1C00
1C00
2C00
2C00
4C00
4C00
8C00
FF80
0C00
0C00
0C00
ENDCHAR
STARTCHAR c53
ENCODING -1 53
SWIDTH 290 0
DWIDTH 9 0
BBX 6 12 1 0
BITMAP
7C
7C
40
80
F0
F8
1C
0C
0C
08
D0
E0
ENDCHAR
STARTCHAR c54
ENCODING -1 54
SWIDTH 290 0
DWIDTH 9 0
BBX 7 12 1 0
BITMAP
1C
20
40
40
C0
DC
E6
C6
C6
C6
44
38
ENDCHAR
STARTCHAR c55
ENCODING -1 55
SWIDTH 290 0
DWIDTH 9 0
BBX 7 12 1 0
BITMAP
FE
FC
84
0C
08
08
18
10
30
20
20
60
ENDCHAR
STARTCHAR c56
ENCODING -1 56
SWIDTH 290 0
DWIDTH 9 0
BBX 7 12 1 0
BITMAP
3C
66
C2
C2
E4
78
3C
4E
86
86
CC
78
ENDCHAR
STARTCHAR c57
ENCODING -1 57
SWIDTH 290 0
DWIDTH 9 0
BBX 7 12 1 0
BITMAP
38
44
C6
C6
C6
CE
76
06
04
04
08
70
ENDCHAR
STARTCHAR c58
ENCODING -1 58
SWIDTH 161 0
DWIDTH 5 0
BBX 2 9 2 0
BITMAP
C0
C0
00
00
00
00
00
C0
C0
ENDCHAR
STARTCHAR c59
ENCODING -1 59
SWIDTH 161 0
DWIDTH 5 0
BBX 2 12 2 -3
BITMAP
C0
C0
00
00
00
00
00
C0
C0
40
40
80
ENDCHAR
STARTCHAR c60
ENCODING -1 60
SWIDTH 322 0
DWIDTH 10 0
BBX 9 9 0 0
BITMAP
0180
0600
1800
6000
8000
6000
1800
0600
0180
ENDCHAR
STARTCHAR c61
ENCODING -1 61
SWIDTH 322 0
DWIDTH 10 0
BBX 9 4 0 3
BITMAP
FF80
0000
0000
FF80
ENDCHAR
STARTCHAR c62
ENCODING -1 62
SWIDTH 322 0
DWIDTH 10 0
BBX 9 9 1 0
BITMAP
C000
3000
0C00
0300
0080
0300
0C00
3000
C000
ENDCHAR
STARTCHAR c63
ENCODING -1 63
SWIDTH 258 0
DWIDTH 8 0
BBX 6 12 1 0
BITMAP
78
CC
CC
0C
18
10
30
30
00
00
30
30
ENDCHAR
STARTCHAR c64
ENCODING -1 64
SWIDTH 548 0
DWIDTH 17 0
BBX 15 14 1 -2
BITMAP
07F0
180C
2004
61E6
4266
C466
CC46
CCC6
CDC4
CECC
4CF0
6000
3000
0FC0
ENDCHAR
STARTCHAR c65
ENCODING -1 65
SWIDTH 387 0
DWIDTH 12 0
BBX 12 12 0 0
BITMAP
0600
0600
0600
0B00
0B00
1100
1180
1F80
2180
20C0
60C0
F3F0
ENDCHAR
STARTCHAR c66
ENCODING -1 66
SWIDTH 387 0
DWIDTH 12 0
BBX 11 12 0 0
BITMAP
FF80
30C0
30C0
30C0
3080
3F00
30C0
3060
3060
3060
30C0
FF80
ENDCHAR
STARTCHAR c67
ENCODING -1 67
SWIDTH 387 0
DWIDTH 12 0
BBX 10 12 1 0
BITMAP
0F40
31C0
60C0
6040
C040
C000
C000
C000
6040
6040
3080
0F00
ENDCHAR
STARTCHAR c68
ENCODING -1 68
SWIDTH 419 0
DWIDTH 13 0
BBX 12 12 0 0
BITMAP
FF00
30C0
3060
3060
3030
3030
3030
3030
3060
3060
30C0
FF00
ENDCHAR
STARTCHAR c69
ENCODING -1 69
SWIDTH 387 0
DWIDTH 12 0
BBX 10 12 0 0
BITMAP
FFC0
3040
3040
3000
3080
3F80
3080
3000
3040
3040
30C0
FFC0
ENDCHAR
STARTCHAR c70
ENCODING -1 70
SWIDTH 354 0
DWIDTH 11 0
BBX 10 12 0 0
BITMAP
FFC0
3040
3040
3000
3080
3F80
3080
3000
3000
3000
3000
FC00
ENDCHAR
STARTCHAR c71
ENCODING -1 71
SWIDTH 419 0
DWIDTH 13 0
BBX 12 12 1 0
BITMAP
0F40
30C0
6040
6040
C000
C000
C3F0
C0C0
60C0
60C0
30C0
0F00
ENDCHAR
STARTCHAR c72
ENCODING -1 72
SWIDTH 451 0
DWIDTH 14 0
BBX 13 12 0 0
BITMAP
FDF8
3060
3060
3060
3060
3FE0
3060
3060
3060
3060
3060
FDF8
ENDCHAR
STARTCHAR c73
ENCODING -1 73
SWIDTH 225 0
DWIDTH 7 0
BBX 6 12 0 0
BITMAP
FC
30
30
30
30
30
30
30
30
30
30
FC
ENDCHAR
STARTCHAR c74
ENCODING -1 74
SWIDTH 258 0
DWIDTH 8 0
BBX 7 12 0 0
BITMAP
7E
18
18
18
18
18
18
18
18
18
90
E0
ENDCHAR
STARTCHAR c75
ENCODING -1 75
SWIDTH 387 0
DWIDTH 12 0
BBX 12 12 0 0
BITMAP
FDE0
3080
3100
3200
3400
3800
3600
3700
3380
31C0
30E0
FDF0
ENDCHAR
STARTCHAR c76
ENCODING -1 76
SWIDTH 322 0
DWIDTH 10 0
BBX 10 12 0 0
BITMAP
FC00
3000
3000
3000
3000
3000
3000
3000
3040
3040
30C0
FFC0
ENDCHAR
STARTCHAR c77
ENCODING -1 77
SWIDTH 516 0
DWIDTH 16 0
BBX 15 12 0 0
BITMAP
F83E
3838
2C58
2C58
2C58
2C58
2698
2698
2698
2318
2318
FB7E
ENDCHAR
STARTCHAR c78
ENCODING -1 78
SWIDTH 451 0
DWIDTH 14 0
BBX 13 12 0 0
BITMAP
F8F8
3820
3C20
2E20
2620
2720
23A0
21A0
21E0
20E0
2060
F860
ENDCHAR
STARTCHAR c79
ENCODING -1 79
SWIDTH 419 0
DWIDTH 13 0
BBX 12 12 0 0
BITMAP
0F00
30C0
6060
6060
C030
C030
C030
C030
6060
6060
30C0
0F00
ENDCHAR
STARTCHAR c80
ENCODING -1 80
SWIDTH 354 0
DWIDTH 11 0
BBX 10 12 0 0
BITMAP
FF00
3180
30C0
30C0
30C0
3180
3F00
3000
3000
3000
3000
FC00
ENDCHAR
STARTCHAR c81
ENCODING -1 81
SWIDTH 419 0
DWIDTH 13 0
BBX 12 15 0 -3
BITMAP
0F00
30C0
6060
6060
C030
C030
C030
C030
6060
6060
30C0
0F00
0380
01C0
00F0
ENDCHAR
STARTCHAR c82
ENCODING -1 82
SWIDTH 387 0
DWIDTH 12 0
BBX 12 12 0 0
BITMAP
FF80
31C0
30C0
30C0
3180
3E00
3300
3180
3180
30C0
30C0
FC70
ENDCHAR
STARTCHAR c83
ENCODING -1 83
SWIDTH 354 0
DWIDTH 11 0
BBX 8 12 1 0
BITMAP
3F
63
C1
C1
E0
7C
3E
07
83
83
C6
FC
ENDCHAR
STARTCHAR c84
ENCODING -1 84
SWIDTH 354 0
DWIDTH 11 0
BBX 10 12 0 0
BITMAP
FFC0
CCC0
8C40
8C40
0C00
0C00
0C00
0C00
0C00
0C00
0C00
3F00
ENDCHAR
STARTCHAR c85
ENCODING -1 85
SWIDTH 451 0
DWIDTH 14 0
BBX 13 12 0 0
BITMAP
FCF8
3020
3020
3020
3020
3020
3020
3020
3020
3020
1840
0F80
ENDCHAR
STARTCHAR c86
ENCODING -1 86
SWIDTH 354 0
DWIDTH 11 0
BBX 11 12 0 0
BITMAP
F9E0
60C0
6080
3080
3100
3100
1100
1A00
1A00
0C00
0C00
0C00
ENDCHAR
STARTCHAR c87
ENCODING -1 87
SWIDTH 548 0
DWIDTH 17 0
BBX 17 12 0 0
BITMAP
F7CF80
618200
618200
30C200
30C400
31C400
114400
1A6800
1A6800
0E3000
0C3000
0C3000
ENDCHAR
STARTCHAR c88
ENCODING -1 88
SWIDTH 387 0
DWIDTH 12 0
BBX 12 12 0 0
BITMAP
FDF0
30C0
1880
1900
0E00
0600
0700
0B00
1180
2180
60C0
F1F0
ENDCHAR
STARTCHAR c89
ENCODING -1 89
SWIDTH 354 0
DWIDTH 11 0
BBX 11 12 0 0
BITMAP
F9E0
60C0
3080
3100
1900
1A00
0C00
0C00
0C00
0C00
0C00
3F00
ENDCHAR
STARTCHAR c90
ENCODING -1 90
SWIDTH 354 0
DWIDTH 11 0
BBX 10 12 0 0
BITMAP
FFC0
C1C0
8380
8300
0600
0E00
1C00
1800
3040
7040
E0C0
FFC0
ENDCHAR
STARTCHAR c91
ENCODING -1 91
SWIDTH 193 0
DWIDTH 6 0
BBX 4 17 0 -4
BITMAP
F0
C0
C0
C0
C0
C0
C0
C0
C0
C0
C0
C0
C0
C0
C0
C0
F0
ENDCHAR
STARTCHAR c92
ENCODING -1 92
SWIDTH 258 0
DWIDTH 8 0
BBX 6 13 0 0
BITMAP
80
80
40
40
20
20
20
10
10
08
08
04
04
ENDCHAR
STARTCHAR c93
ENCODING -1 93
SWIDTH 193 0
DWIDTH 6 0
BBX 4 17 1 -4
BITMAP
F0
30
30
30
30
30
30
30
30
30
30
30
30
30
30
30
F0
ENDCHAR
STARTCHAR c94
ENCODING -1 94
SWIDTH 322 0
DWIDTH 10 0
BBX 9 10 0 0
BITMAP
0800
1C00
2A00
4900
8880
0800
0800
0800
0800
0800
ENDCHAR
STARTCHAR c95
ENCODING -1 95
SWIDTH 322 0
DWIDTH 10 0
BBX 9 1 0 4
BITMAP
FF80
ENDCHAR
STARTCHAR c96
ENCODING -1 96
SWIDTH 290 0
DWIDTH 9 0
BBX 3 4 2 10
BITMAP
C0
C0
40
20
ENDCHAR
STARTCHAR c97
ENCODING -1 97
SWIDTH 290 0
DWIDTH 9 0
BBX 7 9 1 0
BITMAP
78
CC
CC
0C
7C
CC
CC
DC
EE
ENDCHAR
STARTCHAR c98
ENCODING -1 98
SWIDTH 322 0
DWIDTH 10 0
BBX 9 13 0 0
BITMAP
E000
6000
6000
6000
6E00
7300
6180
6180
6180
6180
6180
7300
5E00
ENDCHAR
STARTCHAR c99
ENCODING -1 99
SWIDTH 258 0
DWIDTH 8 0
BBX 7 9 0 0
BITMAP
3E
66
C2
C0
C0
C0
C2
E6
78
ENDCHAR
STARTCHAR c100
ENCODING -1 100
SWIDTH 322 0
DWIDTH 10 0
BBX 9 13 0 0
BITMAP
0700
0300
0300
0300
3B00
6700
C300
C300
C300
C300
C300
6700
3B80
ENDCHAR
STARTCHAR c101
ENCODING -1 101
SWIDTH 258 0
DWIDTH 8 0
BBX 7 9 0 0
BITMAP
3C
66
C6
FE
C0
C0
C2
66
3C
ENDCHAR
STARTCHAR c102
ENCODING -1 102
SWIDTH 161 0
DWIDTH 5 0
BBX 5 13 0 0
BITMAP
18
28
60
60
F8
60
60
60
60
60
60
60
F0
ENDCHAR
STARTCHAR c103
ENCODING -1 103
SWIDTH 290 0
DWIDTH 9 0
BBX 8 13 1 -4
BITMAP
7F
CC
CC
CC
CC
78
40
FC
FE
46
82
86
7C
ENDCHAR
STARTCHAR c104
ENCODING -1 104
SWIDTH 322 0
DWIDTH 10 0
BBX 9 13 0 0
BITMAP
E000
6000
6000
6000
6E00
7300
6300
6300
6300
6300
6300
6300
F780
ENDCHAR
STARTCHAR c105
ENCODING -1 105
SWIDTH 161 0
DWIDTH 5 0
BBX 4 13 0 0
BITMAP
60
60
00
00
E0
60
60
60
60
60
60
60
F0
ENDCHAR
STARTCHAR c106
ENCODING -1 106
SWIDTH 193 0
DWIDTH 6 0
BBX 4 17 0 -4
BITMAP
30
30
00
00
70
30
30
30
30
30
30
30
30
30
20
A0
C0
ENDCHAR
STARTCHAR c107
ENCODING -1 107
SWIDTH 290 0
DWIDTH 9 0
BBX 9 13 0 0
BITMAP
E000
6000
6000
6000
6780
6200
6400
6800
7C00
6E00
6600
6700
F380
ENDCHAR
STARTCHAR c108
ENCODING -1 108
SWIDTH 161 0
DWIDTH 5 0
BBX 4 13 0 0
BITMAP
E0
60
60
60
60
60
60
60
60
60
60
60
F0
ENDCHAR
STARTCHAR c109
ENCODING -1 109
SWIDTH 483 0
DWIDTH 15 0
BBX 14 9 0 0
BITMAP
EE70
7398
6318
6318
6318
6318
6318
6318
F7BC
ENDCHAR
STARTCHAR c110
ENCODING -1 110
SWIDTH 322 0
DWIDTH 10 0
BBX 9 9 0 0
BITMAP
EE00
7300
6300
6300
6300
6300
6300
6300
F780
ENDCHAR
STARTCHAR c111
ENCODING -1 111
SWIDTH 290 0
DWIDTH 9 0
BBX 8 9 0 0
BITMAP
3C
66
C3
C3
C3
C3
C3
66
3C
ENDCHAR
STARTCHAR c112
ENCODING -1 112
SWIDTH 322 0
DWIDTH 10 0
BBX 9 13 0 -4
BITMAP
EE00
7300
6180
6180
6180
6180
6180
7300
6E00
6000
6000
6000
F000
ENDCHAR
STARTCHAR c113
ENCODING -1 113
SWIDTH 322 0
DWIDTH 10 0
BBX 9 13 0 -4
BITMAP
3D00
6700
C300
C300
C300
C300
C300
6700
3B00
0300
0300
0300
0780
ENDCHAR
STARTCHAR c114
ENCODING -1 114
SWIDTH 193 0
DWIDTH 6 0
BBX 6 9 0 0
BITMAP
EC
6C
70
60
60
60
60
60
F0
ENDCHAR
STARTCHAR c115
ENCODING -1 115
SWIDTH 225 0
DWIDTH 7 0
BBX 6 9 0 0
BITMAP
7C
CC
C4
E0
78
1C
8C
CC
F8
ENDCHAR
STARTCHAR c116
ENCODING -1 116
SWIDTH 193 0
DWIDTH 6 0
BBX 6 12 0 0
BITMAP
20
20
60
FC
60
60
60
60
60
60
64
38
ENDCHAR
STARTCHAR c117
ENCODING -1 117
SWIDTH 322 0
DWIDTH 10 0
BBX 9 9 0 0
BITMAP
E700
6300
6300
6300
6300
6300
6300
6700
3B80
ENDCHAR
STARTCHAR c118
ENCODING -1 118
SWIDTH 290 0
DWIDTH 9 0
BBX 8 9 0 0
BITMAP
F7
62
62
62
34
34
38
18
18
ENDCHAR
STARTCHAR c119
ENCODING -1 119
SWIDTH 451 0
DWIDTH 14 0
BBX 13 9 0 0
BITMAP
F7B8
6310
6310
6320
35A0
35A0
18C0
18C0
18C0
ENDCHAR
STARTCHAR c120
ENCODING -1 120
SWIDTH 290 0
DWIDTH 9 0
BBX 8 9 0 0
BITMAP
F7
62
34
38
18
1C
2C
46
EF
ENDCHAR
STARTCHAR c121
ENCODING -1 121
SWIDTH 290 0
DWIDTH 9 0
BBX 8 13 0 -4
BITMAP
F7
62
62
62
34
34
38
18
18
10
10
D0
E0
ENDCHAR
STARTCHAR c122
ENCODING -1 122
SWIDTH 258 0
DWIDTH 8 0
BBX 7 9 0 0
BITMAP
FE
C6
8C
18
18
30
62
C6
FE
ENDCHAR
STARTCHAR c123
ENCODING -1 123
SWIDTH 193 0
DWIDTH 6 0
BBX 5 17 0 -4
BITMAP
18
20
60
60
60
60
60
40
80
40
60
60
60
60
60
20
18
ENDCHAR
STARTCHAR c124
ENCODING -1 124
SWIDTH 225 0
DWIDTH 7 0
BBX 2 17 2 -4
BITMAP
C0
C0
C0
C0
C0
C0
C0
C0
C0
C0
C0
C0
C0
C0
C0
C0
C0
ENDCHAR
STARTCHAR c125
ENCODING -1 125
SWIDTH 193 0
DWIDTH 6 0
BBX 5 17 0 -4
BITMAP
C0
20
30
30
30
30
30
10
08
10
30
30
30
30
30
20
C0
ENDCHAR
STARTCHAR c126
ENCODING -1 126
SWIDTH 322 0
DWIDTH 10 0
BBX 9 3 0 3
BITMAP
7880
9C80
8F00
ENDCHAR
STARTCHAR c128
ENCODING -1 128
SWIDTH 387 0
DWIDTH 12 0
BBX 12 14 0 0
BITMAP
1980
1980
0600
0600
0600
0B00
0B00
1100
1180
1F80
2180
20C0
60C0
F3F0
ENDCHAR
STARTCHAR c129
ENCODING -1 129
SWIDTH 419 0
DWIDTH 13 0
BBX 12 14 0 0
BITMAP
1980
1980
0F00
30C0
6060
6060
C030
C030
C030
C030
6060
6060
30C0
0F00
ENDCHAR
STARTCHAR c130
ENCODING -1 130
SWIDTH 451 0
DWIDTH 14 0
BBX 13 14 0 0
BITMAP
0CC0
0CC0
FCF8
3020
3020
3020
3020
3020
3020
3020
3020
3020
1840
0F80
ENDCHAR
STARTCHAR c131
ENCODING -1 131
SWIDTH 290 0
DWIDTH 9 0
BBX 7 13 1 0
BITMAP
CC
CC
00
00
78
CC
CC
0C
7C
CC
CC
DC
EE
ENDCHAR
STARTCHAR c132
ENCODING -1 132
SWIDTH 290 0
DWIDTH 9 0
BBX 8 13 0 0
BITMAP
66
66
00
00
3C
66
C3
C3
C3
C3
C3
66
3C
ENDCHAR
STARTCHAR c133
ENCODING -1 133
SWIDTH 322 0
DWIDTH 10 0
BBX 9 13 0 0
BITMAP
3600
3600
0000
0000
E700
6300
6300
6300
6300
6300
6300
6700
3B80
ENDCHAR
STARTCHAR c134
ENCODING -1 134
SWIDTH 290 0
DWIDTH 9 0
BBX 7 14 1 0
BITMAP
30
78
48
84
00
78
CC
CC
0C
7C
CC
CC
DC
EE
ENDCHAR
STARTCHAR c135
ENCODING -1 135
SWIDTH 258 0
DWIDTH 8 0
BBX 7 14 0 0
BITMAP
18
3C
24
42
00
3C
66
C6
FE
C0
C0
C2
66
3C
ENDCHAR
STARTCHAR c136
ENCODING -1 136
SWIDTH 161 0
DWIDTH 5 0
BBX 4 14 0 0
BITMAP
60
F0
90
00
00
E0
60
60
60
60
60
60
60
F0
ENDCHAR
STARTCHAR c137
ENCODING -1 137
SWIDTH 290 0
DWIDTH 9 0
BBX 8 14 0 0
BITMAP
18
3C
24
42
00
3C
66
C3
C3
C3
C3
C3
66
3C
ENDCHAR
STARTCHAR c138
ENCODING -1 138
SWIDTH 322 0
DWIDTH 10 0
BBX 9 14 0 0
BITMAP
0C00
1E00
1200
2100
0000
E700
6300
6300
6300
6300
6300
6300
6700
3B80
ENDCHAR
STARTCHAR c139
ENCODING -1 139
SWIDTH 290 0
DWIDTH 9 0
BBX 7 14 1 0
BITMAP
60
60
20
10
00
78
CC
CC
0C
7C
CC
CC
DC
EE
ENDCHAR
STARTCHAR c140
ENCODING -1 140
SWIDTH 258 0
DWIDTH 8 0
BBX 7 14 0 0
BITMAP
30
30
10
08
00
3C
66
C6
FE
C0
C0
C2
66
3C
ENDCHAR
STARTCHAR c141
ENCODING -1 141
SWIDTH 161 0
DWIDTH 5 0
BBX 4 14 0 0
BITMAP
C0
C0
40
20
00
E0
60
60
60
60
60
60
60
F0
ENDCHAR
STARTCHAR c142
ENCODING -1 142
SWIDTH 290 0
DWIDTH 9 0
BBX 8 14 0 0
BITMAP
30
30
10
08
00
3C
66
C3
C3
C3
C3
C3
66
3C
ENDCHAR
STARTCHAR c143
ENCODING -1 143
SWIDTH 322 0
DWIDTH 10 0
BBX 9 14 0 0
BITMAP
3000
3000
1000
0800
0000
E700
6300
6300
6300
6300
6300
6300
6700
3B80
ENDCHAR
STARTCHAR c144
ENCODING -1 144
SWIDTH 258 0
DWIDTH 8 0
BBX 7 14 0 0
BITMAP
0C
0C
08
10
00
3C
66
C6
FE
C0
C0
C2
66
3C
ENDCHAR
STARTCHAR c145
ENCODING -1 145
SWIDTH 258 0
DWIDTH 8 0
BBX 7 13 0 0
BITMAP
6C
6C
00
00
3C
66
C6
FE
C0
C0
C2
66
3C
ENDCHAR
STARTCHAR c146
ENCODING -1 146
SWIDTH 161 0
DWIDTH 5 0
BBX 4 13 0 0
BITMAP
90
90
00
00
E0
60
60
60
60
60
60
60
F0
ENDCHAR
STARTCHAR c147
ENCODING -1 147
SWIDTH 258 0
DWIDTH 8 0
BBX 7 13 0 -4
BITMAP
3E
66
C2
C0
C0
C0
C2
E6
78
00
18
08
10
ENDCHAR
STARTCHAR c148
ENCODING -1 148
SWIDTH 290 0
DWIDTH 9 0
BBX 7 14 1 0
BITMAP
18
18
10
20
00
78
CC
CC
0C
7C
CC
CC
DC
EE
ENDCHAR
STARTCHAR c149
ENCODING -1 149
SWIDTH 322 0
DWIDTH 10 0
BBX 9 14 0 0
BITMAP
3900
5D00
4E00
0000
0000
EE00
7300
6300
6300
6300
6300
6300
6300
F780
ENDCHAR
STARTCHAR c155
ENCODING -1 155
SWIDTH 322 0
DWIDTH 10 0
BBX 10 1 0 4
BITMAP
FFC0
ENDCHAR
STARTCHAR c159
ENCODING -1 159
SWIDTH 290 0
DWIDTH 9 0
BBX 0 0 0 0
BITMAP
ENDCHAR
ENDFONT
